<?xml version="1.0" encoding="utf-8"?>
<!-- Generator: Adobe Illustrator 22.0.1, SVG Export Plug-In . SVG Version: 6.00 Build 0)  -->
<svg version="1.1" id="Layer_1" xmlns="http://www.w3.org/2000/svg" xmlns:xlink="http://www.w3.org/1999/xlink" x="0px" y="0px"
	 viewBox="0 0 16.4 16.4" style="enable-background:new 0 0 16.4 16.4;" xml:space="preserve">
<style type="text/css">
	.st0{fill:none;stroke:#231F20;stroke-width:1.07;stroke-miterlimit:10;}
	.st1{fill:none;stroke:#231F20;stroke-width:0.5;stroke-linecap:round;stroke-linejoin:round;}
</style>
<g id="Layer_2_1_">
	<g id="Layer_1-2">
		<path class="st0" d="M12.1,15.9H4.3c-1.1,0-2-0.9-2-2V2.5c0-1.1,0.9-2,2-2h4.6c0.5,0,1,0.2,1.4,0.5l3.2,3c0.4,0.4,0.6,0.9,0.6,1.5
			v8.4C14.1,15,13.2,15.9,12.1,15.9z"/>
		<path class="st1" d="M5.3,8.8h5.8c0.3,0,0.5,0.2,0.5,0.5v4c0,0.3-0.2,0.5-0.5,0.5H5.3c-0.3,0-0.5-0.2-0.5-0.5v-4
			C4.8,9.1,5,8.8,5.3,8.8z"/>
		<line class="st1" x1="9.5" y1="8.8" x2="9.5" y2="13.9"/>
		<line class="st1" x1="6.9" y1="8.8" x2="6.9" y2="13.9"/>
		<line class="st1" x1="4.8" y1="11.4" x2="6.9" y2="11.4"/>
		<line class="st1" x1="11.7" y1="11.4" x2="9.5" y2="11.4"/>
	</g>
</g>
</svg>
