<svg
        xmlns="http://www.w3.org/2000/svg"
        width="13.125"
        height="15"
        viewBox="0 0 13.125 15">
    <path
            id="gift"
            d="M14.656,4.693H2.469A.468.468,0,0,0,2,5.161V9.38a.468.468,0,0,0,.469.469h.469v4.687A.468.468,0,0,0,3.406,15H13.719a.468.468,0,0,0,.469-.469V9.849h.469a.468.468,0,0,0,.469-.469V5.161A.468.468,0,0,0,14.656,4.693ZM7.625,13.6a.468.468,0,0,1-.469.469H4.344a.468.468,0,0,1-.469-.469V9.849a.468.468,0,0,1,.469-.469H7.156a.468.468,0,0,1,.469.469Zm0-5.625a.468.468,0,0,1-.469.469H3.406a.468.468,0,0,1-.469-.469V6.1a.468.468,0,0,1,.469-.469h3.75a.468.468,0,0,1,.469.469ZM13.25,13.6a.468.468,0,0,1-.469.469H9.969A.468.468,0,0,1,9.5,13.6V9.849a.468.468,0,0,1,.469-.469h2.812a.468.468,0,0,1,.469.469Zm.937-5.625a.468.468,0,0,1-.469.469H9.969A.468.468,0,0,1,9.5,7.974V6.1a.468.468,0,0,1,.469-.469h3.75a.468.468,0,0,1,.469.469ZM6.481,4.692h4.312A3.266,3.266,0,0,0,12.314,2.72a1.5,1.5,0,0,0-.645-1.383,1.64,1.64,0,0,0-1.013-.4c-1.07,0-1.675,1.312-2,2.483C8.264,1.926,7.509.005,6.213.005A1.7,1.7,0,0,0,5.092.492a1.886,1.886,0,0,0-.725,1.747A4.185,4.185,0,0,0,6.481,4.692Zm4.176-2.631a.686.686,0,0,1,.386.18c.242.19.228.308.225.347-.045.41-.814,1.055-1.711,1.587.264-1.135.7-2.114,1.1-2.114Zm-4.891-.7a.782.782,0,0,1,.447-.228c.58,0,1.177,1.523,1.525,3-1.1-.584-2.229-1.412-2.33-2.077C5.394,1.965,5.357,1.719,5.766,1.357Z"
            transform="translate(-2 -0.005)"
            fill="#d70018"></path>
</svg>